<svg width="25" height="24" viewBox="0 0 25 24" fill="none" xmlns="http://www.w3.org/2000/svg">
<path d="M11.75 9V6H8.75V4H11.75V1H13.75V4H16.75V6H13.75V9H11.75ZM7.75 22C7.2 22 6.72917 21.8042 6.3375 21.4125C5.94583 21.0208 5.75 20.55 5.75 20C5.75 19.45 5.94583 18.9792 6.3375 18.5875C6.72917 18.1958 7.2 18 7.75 18C8.3 18 8.77083 18.1958 9.1625 18.5875C9.55417 18.9792 9.75 19.45 9.75 20C9.75 20.55 9.55417 21.0208 9.1625 21.4125C8.77083 21.8042 8.3 22 7.75 22ZM17.75 22C17.2 22 16.7292 21.8042 16.3375 21.4125C15.9458 21.0208 15.75 20.55 15.75 20C15.75 19.45 15.9458 18.9792 16.3375 18.5875C16.7292 18.1958 17.2 18 17.75 18C18.3 18 18.7708 18.1958 19.1625 18.5875C19.5542 18.9792 19.75 19.45 19.75 20C19.75 20.55 19.5542 21.0208 19.1625 21.4125C18.7708 21.8042 18.3 22 17.75 22ZM1.75 4V2H5.025L9.275 11H16.275L20.175 4H22.45L18.05 11.95C17.8667 12.2833 17.6208 12.5417 17.3125 12.725C17.0042 12.9083 16.6667 13 16.3 13H8.85L7.75 15H19.75V17H7.75C7 17 6.42917 16.675 6.0375 16.025C5.64583 15.375 5.63333 14.7167 6 14.05L7.35 11.6L3.75 4H1.75Z" fill="#FF7900"/>
</svg>
