<svg width="25" height="24" viewBox="0 0 25 24" fill="none" xmlns="http://www.w3.org/2000/svg">
<path d="M12.75 21C10.45 21 8.44583 20.2375 6.7375 18.7125C5.02917 17.1875 4.05 15.2833 3.8 13H5.85C6.08333 14.7333 6.85417 16.1667 8.1625 17.3C9.47083 18.4333 11 19 12.75 19C14.7 19 16.3542 18.3208 17.7125 16.9625C19.0708 15.6042 19.75 13.95 19.75 12C19.75 10.05 19.0708 8.39583 17.7125 7.0375C16.3542 5.67917 14.7 5 12.75 5C11.6 5 10.525 5.26667 9.525 5.8C8.525 6.33333 7.68333 7.06667 7 8H9.75V10H3.75V4H5.75V6.35C6.6 5.28333 7.6375 4.45833 8.8625 3.875C10.0875 3.29167 11.3833 3 12.75 3C14 3 15.1708 3.2375 16.2625 3.7125C17.3542 4.1875 18.3042 4.82917 19.1125 5.6375C19.9208 6.44583 20.5625 7.39583 21.0375 8.4875C21.5125 9.57917 21.75 10.75 21.75 12C21.75 13.25 21.5125 14.4208 21.0375 15.5125C20.5625 16.6042 19.9208 17.5542 19.1125 18.3625C18.3042 19.1708 17.3542 19.8125 16.2625 20.2875C15.1708 20.7625 14 21 12.75 21ZM15.55 16.2L11.75 12.4V7H13.75V11.6L16.95 14.8L15.55 16.2Z" fill="black"/>
</svg>
