<svg width="25" height="24" viewBox="0 0 25 24" fill="none" xmlns="http://www.w3.org/2000/svg">
<path d="M12.25 22C10.8667 22 9.56667 21.7375 8.35 21.2125C7.13333 20.6875 6.075 19.975 5.175 19.075C4.275 18.175 3.5625 17.1167 3.0375 15.9C2.5125 14.6833 2.25 13.3833 2.25 12C2.25 10.6167 2.5125 9.31667 3.0375 8.1C3.5625 6.88333 4.275 5.825 5.175 4.925C6.075 4.025 7.13333 3.3125 8.35 2.7875C9.56667 2.2625 10.8667 2 12.25 2C13.05 2 13.8292 2.09167 14.5875 2.275C15.3458 2.45833 16.075 2.725 16.775 3.075C17.025 3.20833 17.1875 3.40833 17.2625 3.675C17.3375 3.94167 17.2917 4.19167 17.125 4.425C16.9583 4.65833 16.7375 4.80833 16.4625 4.875C16.1875 4.94167 15.9167 4.90833 15.65 4.775C15.1167 4.525 14.5625 4.33333 13.9875 4.2C13.4125 4.06667 12.8333 4 12.25 4C10.0333 4 8.14583 4.77917 6.5875 6.3375C5.02917 7.89583 4.25 9.78333 4.25 12C4.25 14.2167 5.02917 16.1042 6.5875 17.6625C8.14583 19.2208 10.0333 20 12.25 20C14.4667 20 16.3542 19.2208 17.9125 17.6625C19.4708 16.1042 20.25 14.2167 20.25 12C20.25 11.8667 20.2458 11.7375 20.2375 11.6125C20.2292 11.4875 20.2167 11.3583 20.2 11.225C20.1667 10.9417 20.2208 10.6708 20.3625 10.4125C20.5042 10.1542 20.7167 9.98333 21 9.9C21.2667 9.81667 21.5167 9.84167 21.75 9.975C21.9833 10.1083 22.1167 10.3083 22.15 10.575C22.1833 10.8083 22.2083 11.0417 22.225 11.275C22.2417 11.5083 22.25 11.75 22.25 12C22.25 13.3833 21.9875 14.6833 21.4625 15.9C20.9375 17.1167 20.225 18.175 19.325 19.075C18.425 19.975 17.3667 20.6875 16.15 21.2125C14.9333 21.7375 13.6333 22 12.25 22ZM10.85 13.8L20.15 4.475C20.3333 4.29167 20.5625 4.19583 20.8375 4.1875C21.1125 4.17917 21.35 4.275 21.55 4.475C21.7333 4.65833 21.825 4.89167 21.825 5.175C21.825 5.45833 21.7333 5.69167 21.55 5.875L11.55 15.9C11.35 16.1 11.1167 16.2 10.85 16.2C10.5833 16.2 10.35 16.1 10.15 15.9L7.3 13.05C7.11667 12.8667 7.025 12.6333 7.025 12.35C7.025 12.0667 7.11667 11.8333 7.3 11.65C7.48333 11.4667 7.71667 11.375 8 11.375C8.28333 11.375 8.51667 11.4667 8.7 11.65L10.85 13.8Z" fill="#FF7900"/>
</svg>
