<svg width="24" height="24" viewBox="0 0 24 24" fill="none" xmlns="http://www.w3.org/2000/svg">
<path d="M18 20V18H16V16H18V14H20V16H22V18H20V20H18ZM2.72501 10.725L0.600006 8.6C2.13334 7.11667 3.88334 5.97917 5.85001 5.1875C7.81667 4.39583 9.86667 4 12 4C14.1333 4 16.1833 4.39583 18.15 5.1875C20.1167 5.97917 21.8667 7.11667 23.4 8.6L21.275 10.725C20.025 9.525 18.6 8.60417 17 7.9625C15.4 7.32083 13.7333 7 12 7C10.2667 7 8.60001 7.32083 7.00001 7.9625C5.40001 8.60417 3.97501 9.525 2.72501 10.725ZM12 20C11.45 20 10.9792 19.8042 10.5875 19.4125C10.1958 19.0208 10 18.55 10 18C10 17.45 10.1958 16.9792 10.5875 16.5875C10.9792 16.1958 11.45 16 12 16C12.55 16 13.0208 16.1958 13.4125 16.5875C13.8042 16.9792 14 17.45 14 18C14 18.55 13.8042 19.0208 13.4125 19.4125C13.0208 19.8042 12.55 20 12 20ZM6.95001 14.95L4.85001 12.85C5.83334 11.9333 6.93751 11.2292 8.16251 10.7375C9.38751 10.2458 10.6667 10 12 10C13.1333 10 14.2292 10.175 15.2875 10.525C16.3458 10.875 17.325 11.3833 18.225 12.05C17.625 12.1333 17.0708 12.325 16.5625 12.625C16.0542 12.925 15.6083 13.2917 15.225 13.725C14.725 13.4917 14.2042 13.3125 13.6625 13.1875C13.1208 13.0625 12.5667 13 12 13C11.05 13 10.1458 13.1667 9.28751 13.5C8.42917 13.8333 7.65001 14.3167 6.95001 14.95Z" fill="#7E7E7E"/>
</svg>
